<svg width="19" height="19" viewBox="0 0 19 19" fill="none" xmlns="http://www.w3.org/2000/svg">
<path d="M9.74976 0.599609C4.80501 0.599609 0.796631 4.60798 0.796631 9.55273C0.796631 14.4975 4.80501 18.5059 9.74976 18.5059C14.6945 18.5059 18.7029 14.4975 18.7029 9.55273C18.7029 4.60798 14.6945 0.599609 9.74976 0.599609ZM9.74976 17.0137C5.62926 17.0137 2.28876 13.6732 2.28876 9.55273C2.28876 5.43223 5.62926 2.09173 9.74976 2.09173C13.8703 2.09173 17.2108 5.43223 17.2108 9.55273C17.2108 13.6732 13.8703 17.0137 9.74976 17.0137Z" fill="#5367FE"/>
<path d="M10.2073 6.64046C10.4218 6.64046 10.6187 6.56471 10.7961 6.41321C10.972 6.26171 11.08 6.07796 11.1186 5.86346C11.1553 5.64746 11.1096 5.46521 10.9761 5.31371C10.8433 5.16071 10.6693 5.08496 10.4541 5.08496C10.2381 5.08496 10.0416 5.16071 9.86571 5.31371C9.68796 5.46484 9.57996 5.64746 9.54321 5.86346C9.51658 6.07834 9.56796 6.26171 9.69433 6.41321C9.82108 6.56471 9.99283 6.64046 10.2073 6.64046Z" fill="#5367FE"/>
<path d="M11.8581 11.9529C11.8382 11.9811 11.8191 12.0054 11.7996 12.0339C11.6826 12.1824 11.2464 12.7071 10.6806 13.0209C10.6768 13.0224 10.6734 13.0239 10.6716 13.0262C10.6221 13.0524 10.5714 13.0723 10.5212 13.0956C10.3719 13.1492 10.2321 13.1627 10.1871 13.1661C10.0599 13.1496 9.99094 13.0607 9.99094 12.8923C9.99094 12.7532 10.0318 12.4783 10.1143 12.0654L10.2092 11.6488L10.5973 9.78582C10.6603 9.46857 10.6941 9.29232 10.7016 9.25744L10.7863 8.82169C10.8362 8.55207 10.8617 8.37394 10.8617 8.28694C10.8617 8.12044 10.8204 7.99407 10.7541 7.89132C10.7481 7.87632 10.7402 7.86132 10.7293 7.84557C10.7196 7.83357 10.7091 7.82307 10.6986 7.81219C10.6869 7.79944 10.6813 7.78857 10.6656 7.77544C10.5002 7.64044 10.3457 7.60144 10.2392 7.59282L10.2411 7.58982C10.2411 7.58982 9.54095 7.53694 8.5037 8.22057C8.4887 8.23032 8.4797 8.23744 8.46582 8.24682C8.18495 8.42457 7.96032 8.60269 7.8047 8.74632C7.68545 8.84832 7.59357 8.94319 7.52532 9.03207L7.52232 9.03619L7.5227 9.03582C7.4342 9.15244 7.3877 9.25819 7.3877 9.35194C7.3877 9.42582 7.4477 9.49969 7.5662 9.57357C7.5662 9.57357 8.0117 8.99832 8.76057 8.62407C8.81682 8.59969 8.96082 8.54007 9.08757 8.50707C9.14644 8.49357 9.25819 8.48307 9.32945 8.54194C9.38045 8.59519 9.41419 8.66907 9.41419 8.78419C9.41419 8.88882 9.39845 9.01594 9.36657 9.16782L9.29082 9.52669L9.19669 9.97519L8.82694 11.7482C8.63794 12.6639 8.54307 13.2118 8.54307 13.3903C8.54307 13.8114 8.7737 14.0222 9.2342 14.0222C9.44307 14.0222 9.65757 13.9843 9.87769 13.9168C9.87919 13.9168 9.87995 13.9176 9.88144 13.9183C9.89645 13.9131 9.91032 13.9074 9.92494 13.9022C9.96132 13.8906 9.99807 13.8767 10.0344 13.8628C11.0736 13.4762 11.7576 12.6973 11.9642 12.4363C11.9826 12.4142 11.9983 12.3936 12.0129 12.3737C12.0246 12.3576 12.0321 12.3467 12.0321 12.3467H12.0313C12.0838 12.2694 12.1127 12.2053 12.1127 12.1573C12.1119 12.0902 12.0253 12.0231 11.8581 11.9529Z" fill="#5367FE"/>
</svg>
