<svg width="12" height="12" viewBox="0 0 12 12" fill="none" xmlns="http://www.w3.org/2000/svg">
<circle cx="6" cy="6" r="6" fill="#5367FE"/>
<path d="M6.00453 4.73727C5.83349 4.73727 5.69005 4.68273 5.57418 4.57364C5.45832 4.46454 5.40039 4.32948 5.40039 4.16844C5.40039 4.0074 5.45832 3.87234 5.57418 3.76325C5.69005 3.65416 5.83349 3.59961 6.00453 3.59961C6.17005 3.59961 6.31074 3.65416 6.4266 3.76325C6.54246 3.87234 6.60039 4.0074 6.60039 4.16844C6.60039 4.32948 6.54246 4.46454 6.4266 4.57364C6.31074 4.68273 6.17005 4.73727 6.00453 4.73727ZM6.46798 5.3061V8.39961H5.52453V5.3061H6.46798Z" fill="white"/>
</svg>
