<svg width="70" height="71" viewBox="0 0 70 71" fill="none" xmlns="http://www.w3.org/2000/svg">
<path d="M59.6392 60.0649C56.3788 63.326 52.4967 65.8967 48.224 67.6239C43.9513 69.3511 39.3754 70.1994 34.7686 70.1185C30.1907 70.2086 25.6425 69.3628 21.4019 67.6328C17.1612 65.9027 13.3173 63.3247 10.1048 60.0563C6.81669 56.8492 4.22329 52.9981 2.48623 48.7429C0.749174 44.4877 -0.0943081 39.9197 0.00836463 35.3236C0.00836463 25.2672 3.37958 16.8877 10.122 10.1854C13.3365 6.91783 17.1823 4.34109 21.4244 2.61252C25.6665 0.883947 30.2158 0.0398467 34.7945 0.131778C39.4003 0.0536212 43.9748 0.904138 48.2459 2.63275C52.517 4.36135 56.3975 6.93274 59.6565 10.194C66.5482 16.9021 69.9941 25.2844 69.9941 35.3409C70.0812 39.957 69.2051 44.5405 67.4221 48.7979C65.639 53.0553 62.9881 56.8929 59.6392 60.0649Z" fill="#FFF706"/>
<path fill-rule="evenodd" clip-rule="evenodd" d="M40.3467 13.9064C40.2109 14.2423 40.0495 14.5528 39.8714 14.8326C49.1129 16.9051 55.6667 24.5769 55.564 37.9118H49.9394C50.0266 26.6089 43.5311 21.0282 35.0319 20.8527C25.7764 20.6616 20.6532 26.8883 20.06 37.9118H14.4351C15.1558 24.5213 20.8804 16.3624 30.9363 14.7586C30.7755 14.5227 30.479 14.0458 30.347 13.7683C29.5587 12.1144 29.6708 10.4114 30.5971 9.96422C31.3379 9.60681 32.3748 10.1615 33.1637 11.2441C33.1535 11.0848 33.1476 10.923 33.1476 10.7587C33.1476 8.44313 34.1989 6.56567 35.4958 6.56567C36.7927 6.56567 37.8439 8.44313 37.8439 10.7587C37.8439 10.8147 37.8429 10.8701 37.8417 10.9255C38.5379 10.0903 39.3504 9.67631 39.9705 9.94057C40.601 10.2094 40.8691 11.1117 40.7416 12.2227C40.7104 12.7492 40.5809 13.3273 40.3467 13.9064ZM30.3596 27.3602C29.6817 27.3602 29.1321 27.977 29.1321 28.7374V32.1201C29.1321 32.8807 29.6817 33.4972 30.3596 33.4972C31.0373 33.4972 31.5869 32.8807 31.5869 32.1201V28.7374C31.5869 27.977 31.0373 27.3602 30.3596 27.3602ZM38.9513 28.7374C38.9513 27.977 39.5009 27.3602 40.1787 27.3602C40.8566 27.3602 41.4061 27.977 41.4061 28.7374V32.1201C41.4061 32.8807 40.8566 33.4972 40.1787 33.4972C39.5009 33.4972 38.9513 32.8807 38.9513 32.1201V28.7374Z" fill="black"/>
<path fill-rule="evenodd" clip-rule="evenodd" d="M18.6254 48.4857C18.4821 48.8802 18.2859 49.2214 18.0369 49.5094C17.7878 49.7974 17.4935 50.0239 17.1543 50.1892C16.815 50.3545 16.4547 50.4372 16.0728 50.4372H14.2757V43.943H16.0728C16.4547 43.943 16.815 44.0284 17.1543 44.199C17.4935 44.3698 17.7878 44.6016 18.0369 44.8949C18.2859 45.188 18.4821 45.5347 18.6254 45.9345C18.7684 46.3343 18.84 46.7637 18.84 47.2221C18.84 47.67 18.7684 48.0912 18.6254 48.4857ZM21.2335 45.0067C20.9417 44.319 20.5442 43.7245 20.0408 43.2233C19.537 42.7222 18.9433 42.3251 18.2595 42.0316C17.5757 41.7383 16.8467 41.5918 16.0728 41.5918H11.5405V52.7884H16.0728C16.8467 52.7884 17.5757 52.6446 18.2595 52.3566C18.9433 52.0686 19.537 51.6741 20.0408 51.1729C20.5442 50.6717 20.9417 50.0801 21.2335 49.3974C21.5249 48.7151 21.6708 47.9898 21.6708 47.2221C21.6708 46.4331 21.5249 45.6945 21.2335 45.0067ZM31.4098 48.5079C31.2658 48.9048 31.0676 49.245 30.8153 49.5284C30.5633 49.8121 30.2622 50.0364 29.9122 50.2013C29.5622 50.3662 29.1865 50.4488 28.785 50.4488C28.3836 50.4488 28.0079 50.3662 27.6579 50.2013C27.3079 50.0364 27.007 49.8121 26.7548 49.5284C26.5025 49.245 26.3043 48.9048 26.1603 48.5079C26.0162 48.111 25.9441 47.6856 25.9441 47.232C25.9441 46.7781 26.0162 46.3529 26.1603 45.9561C26.3043 45.559 26.5025 45.2188 26.7548 44.9353C27.007 44.6517 27.3079 44.4274 27.6579 44.2625C28.0079 44.0976 28.3836 44.0149 28.785 44.0149C29.1865 44.0149 29.5622 44.0976 29.9122 44.2625C30.2622 44.4274 30.5633 44.6517 30.8153 44.9353C31.0676 45.2188 31.2658 45.559 31.4098 45.9561C31.5539 46.3529 31.626 46.7781 31.626 47.232C31.626 47.6856 31.5539 48.111 31.4098 48.5079ZM34.0333 44.9957C33.7441 44.3083 33.3491 43.7137 32.8485 43.2123C32.3478 42.7107 31.7566 42.3154 31.0753 42.0258C30.3939 41.7365 29.6609 41.5918 28.8762 41.5918C28.0917 41.5918 27.356 41.7365 26.6696 42.0258C25.9828 42.3154 25.3892 42.7107 24.8885 43.2123C24.3879 43.7137 23.9929 44.3083 23.7039 44.9957C23.4148 45.6833 23.2703 46.4146 23.2703 47.1902C23.2703 47.9656 23.4148 48.697 23.7039 49.3845C23.9929 50.0721 24.3879 50.6666 24.8885 51.1679C25.3892 51.6695 25.9828 52.0648 26.6696 52.3544C27.356 52.6437 28.0917 52.7884 28.8762 52.7884C29.6609 52.7884 30.3939 52.6437 31.0753 52.3544C31.7566 52.0648 32.3478 51.6695 32.8485 51.1679C33.3491 50.6666 33.7441 50.0721 34.0333 49.3845C34.3222 48.697 34.4669 47.9656 34.4669 47.1902C34.4669 46.4146 34.3222 45.6833 34.0333 44.9957ZM54.8079 49.5284C55.0602 49.245 55.2585 48.9048 55.4024 48.5079C55.5468 48.111 55.6187 47.6856 55.6187 47.232C55.6187 46.7781 55.5468 46.3529 55.4024 45.9561C55.2585 45.559 55.0602 45.2188 54.8079 44.9353C54.556 44.6517 54.2546 44.4274 53.9046 44.2625C53.5551 44.0976 53.1793 44.0149 52.7778 44.0149C52.3762 44.0149 52.0004 44.0976 51.6504 44.2625C51.3009 44.4274 51 44.6517 50.7472 44.9353C50.4954 45.2188 50.297 45.559 50.1526 45.9561C50.0087 46.3529 49.9368 46.7781 49.9368 47.232C49.9368 47.6856 50.0087 48.111 50.1526 48.5079C50.297 48.9048 50.4954 49.245 50.7472 49.5284C51 49.8121 51.3009 50.0364 51.6504 50.2013C52.0004 50.3662 52.3762 50.4488 52.7778 50.4488C53.1793 50.4488 53.5551 50.3662 53.9046 50.2013C54.2546 50.0364 54.556 49.8121 54.8079 49.5284ZM56.8414 43.2123C57.3421 43.7137 57.7373 44.3083 58.0261 44.9957C58.3153 45.6833 58.4597 46.4146 58.4597 47.1902C58.4597 47.9656 58.3153 48.697 58.0261 49.3845C57.7373 50.0721 57.3421 50.6666 56.8414 51.1679C56.3406 51.6695 55.7495 52.0648 55.0679 52.3544C54.3869 52.6437 53.6538 52.7884 52.8691 52.7884C52.0845 52.7884 51.349 52.6437 50.6626 52.3544C49.9757 52.0648 49.3821 51.6695 48.8814 51.1679C48.3807 50.6666 47.9859 50.0721 47.6967 49.3845C47.4074 48.697 47.263 47.9656 47.263 47.1902C47.263 46.4146 47.4074 45.6833 47.6967 44.9957C47.9859 44.3083 48.3807 43.7137 48.8814 43.2123C49.3821 42.7107 49.9757 42.3154 50.6626 42.0258C51.349 41.7365 52.0845 41.5918 52.8691 41.5918C53.6538 41.5918 54.3869 41.7365 55.0679 42.0258C55.7495 42.3154 56.3406 42.7107 56.8414 43.2123ZM43.0901 48.574C42.9486 48.9699 42.7546 49.3123 42.5086 49.6013C42.2622 49.8903 41.9715 50.1176 41.636 50.2836C41.3006 50.4494 40.9443 50.5324 40.567 50.5324H38.7907V44.0149H40.567C40.9443 44.0149 41.3006 44.1005 41.636 44.2718C41.9715 44.4432 42.2622 44.6759 42.5086 44.9702C42.7546 45.2644 42.9486 45.6123 43.0901 46.0135C43.2315 46.4148 43.3025 46.8457 43.3025 47.3057C43.3025 47.7553 43.2315 48.1781 43.0901 48.574ZM45.7594 45.0067C45.4677 44.319 45.0701 43.7245 44.5669 43.2233C44.0628 42.7222 43.4692 42.3251 42.7853 42.0316C42.1017 41.7383 41.3725 41.5918 40.5986 41.5918H36.0664V52.7884H40.5986C41.3725 52.7884 42.1017 52.6446 42.7853 52.3566C43.4692 52.0686 44.0628 51.6741 44.5669 51.1729C45.0701 50.6717 45.4677 50.0801 45.7594 49.3974C46.0506 48.7151 46.1965 47.9898 46.1965 47.2221C46.1965 46.4331 46.0506 45.6945 45.7594 45.0067Z" fill="black"/>
</svg>
