<svg width="70" height="70" viewBox="0 0 70 70" fill="none" xmlns="http://www.w3.org/2000/svg">
<path d="M59.6392 59.9399C56.3788 63.201 52.4967 65.7717 48.224 67.4989C43.9513 69.2261 39.3754 70.0744 34.7686 69.9935C30.1907 70.0836 25.6425 69.2378 21.4019 67.5078C17.1612 65.7777 13.3173 63.1997 10.1048 59.9313C6.81669 56.7242 4.22329 52.8731 2.48623 48.6179C0.749174 44.3627 -0.0943081 39.7947 0.00836463 35.1986C0.00836463 25.1422 3.37958 16.7627 10.122 10.0604C13.3365 6.79283 17.1823 4.21608 21.4244 2.48752C25.6665 0.758947 30.2158 -0.0851533 34.7945 0.00677779C39.4003 -0.0713788 43.9748 0.779138 48.2459 2.50775C52.517 4.23635 56.3975 6.80774 59.6565 10.069C66.5482 16.7771 69.9941 25.1594 69.9941 35.2159C70.0812 39.832 69.2051 44.4155 67.4221 48.6729C65.639 52.9303 62.9881 56.7679 59.6392 59.9399Z" fill="#1E1E1E"/>
<path d="M23.1211 24.0169C23.1211 26.7189 28.4411 28.9169 35.0001 28.9169C41.5591 28.9169 46.8791 26.7189 46.8791 24.0169C46.8791 21.3149 41.5591 19.1169 35.0001 19.1169C28.4411 19.1169 23.1211 21.3149 23.1211 24.0169Z" fill="white"/>
<path d="M35 38.353C26.516 38.353 19.635 35.693 19.635 32.41C19.635 30.59 21.756 28.959 25.081 27.874C27.454 29.113 31.01 29.904 35 29.904C38.99 29.904 42.546 29.113 44.919 27.874C48.251 28.966 50.365 30.59 50.365 32.41C50.372 35.693 43.491 38.353 35 38.353Z" fill="white"/>
<path d="M35.0001 49.6299C23.8071 49.6299 14.7351 46.3959 14.7351 42.0629C14.7351 39.8019 17.2061 37.7649 21.1611 36.3299C24.2481 38.3109 29.4281 39.3259 35.3011 39.3259C41.0341 39.3259 46.1021 38.0869 49.2171 36.1899C52.9481 37.6109 55.2651 39.5919 55.2651 41.7759C55.2651 46.1159 46.1931 49.6299 35.0001 49.6299Z" fill="white"/>
</svg>
