<svg width="70" height="70" viewBox="0 0 70 70" fill="none" xmlns="http://www.w3.org/2000/svg">
<path d="M35.5385 68.9229C16.506 68.9229 1.07698 53.494 1.07698 34.4615C1.07698 15.4289 16.506 0 35.5385 0C54.5711 0 70 15.4289 70 34.4615C70 53.494 54.5711 68.9229 35.5385 68.9229Z" fill="white"/>
<path d="M8.84572 12.9653C11.2358 13.4378 13.5146 14.1048 15.3906 14.5216C19.6705 15.4805 23.6725 18.7599 24.5479 24.7629C25.326 30.1267 23.5196 32.4334 24.3117 38.6725C25.7012 49.5668 36.1508 53.3186 41.0283 55.5975C43.8492 56.9037 50.6997 59.9052 55.9802 62.198C50.2551 66.4223 43.196 68.9236 35.5394 68.9236C16.5022 68.9236 1.07789 53.4993 1.07789 34.4621C1.07789 26.3469 3.88489 18.8849 8.58163 13.0071C8.665 12.9931 8.74836 12.9792 8.84572 12.9653Z" fill="url(#paint0_linear_1294_3262)"/>
<path d="M39.4155 29.4034C36.7613 23.6645 37.7201 23.6506 35.7052 18.2591C33.1623 11.4223 25.2556 13.3677 23.074 13.6595C19.475 14.1459 18.53 12.8675 10.943 11.6446C10.5678 11.5891 10.2065 11.5335 9.84518 11.4918C16.154 4.44664 25.3251 0 35.5385 0C49.2537 0 61.0928 8.00395 66.6372 19.6069C55.2705 22.4277 43.0005 28.5558 39.4155 29.4034ZM46.947 6.00297C45.9465 6.15581 41.0829 12.2005 40.1657 27.722C40.1657 27.722 46.4189 26.2212 47.7667 22.9974C48.8785 20.3434 47.4333 16.8555 46.947 6.00297ZM8.63635 12.9369C8.62235 12.9648 8.5946 12.9786 8.58073 13.0064C8.66409 12.9925 8.76133 12.9925 8.84469 12.9786C8.7752 12.9509 8.70571 12.9509 8.63635 12.9369ZM70 34.4615C70 31.7101 69.6804 29.0421 69.069 26.4853C67.8184 27.5274 66.4844 28.6808 65.067 30.001C56.0904 38.3245 41.4859 44.8972 36.1638 38.7831C36.1499 38.7969 36.136 38.7969 36.136 38.8108C37.1088 40.0893 40.8189 44.133 47.9057 42.8823L59.1057 59.5989C65.8035 53.318 70 44.3831 70 34.4615Z" fill="url(#paint1_linear_1294_3262)"/>
<defs>
<linearGradient id="paint0_linear_1294_3262" x1="14.8437" y1="21.9913" x2="22.9739" y2="66.7811" gradientUnits="userSpaceOnUse">
<stop stop-color="#FF496A"/>
<stop offset="1" stop-color="#E42648"/>
</linearGradient>
<linearGradient id="paint1_linear_1294_3262" x1="53.3665" y1="50.7639" x2="35.3907" y2="-1.10792e-05" gradientUnits="userSpaceOnUse">
<stop offset="0.00181229" stop-color="#1158F1"/>
<stop offset="1" stop-color="#119BED"/>
</linearGradient>
</defs>
</svg>
