<svg width="70" height="70" viewBox="0 0 70 70" fill="none" xmlns="http://www.w3.org/2000/svg">
<path d="M59.6392 59.9399C56.3788 63.201 52.4967 65.7717 48.224 67.4989C43.9513 69.2261 39.3754 70.0744 34.7686 69.9935C30.1907 70.0836 25.6425 69.2378 21.4019 67.5078C17.1612 65.7777 13.3173 63.1997 10.1048 59.9313C6.81669 56.7242 4.22329 52.8731 2.48623 48.6179C0.749174 44.3627 -0.0943081 39.7947 0.00836463 35.1986C0.00836463 25.1422 3.37958 16.7627 10.122 10.0604C13.3365 6.79283 17.1823 4.21608 21.4244 2.48752C25.6665 0.758947 30.2158 -0.0851533 34.7945 0.00677779C39.4003 -0.0713788 43.9748 0.779138 48.2459 2.50775C52.517 4.23635 56.3975 6.80774 59.6565 10.069C66.5482 16.7771 69.9941 25.1594 69.9941 35.2159C70.0812 39.832 69.2051 44.4155 67.4221 48.6729C65.639 52.9303 62.9881 56.7679 59.6392 59.9399Z" fill="white"/>
<path d="M24.7021 62.5233C29.3621 62.5233 32.6452 55.4628 33.7043 51.9326C41.1179 46.6371 55.9449 49.2849 60.7108 42.4009C65.4766 35.5169 62.0969 27.9009 57.004 22.808C49.5905 15.3944 36.352 11.6876 31.5861 10.6285C26.8203 9.56945 18.8772 9.03991 14.6409 15.9239C10.4046 22.8079 8.81598 30.751 10.9341 43.4599C13.0523 56.1689 18.8772 62.5233 24.7021 62.5233Z" fill="url(#paint0_linear_144_6551)"/>
<path d="M50.6781 32.8341C48.1363 34.5287 37.9692 36.0114 33.2033 36.5409C33.2033 33.3638 32.1442 29.1273 31.0851 26.4796C30.0261 23.8319 25.7898 20.6547 29.4965 18.007C33.2033 15.3593 46.4418 22.2433 50.6781 25.4206C54.9144 28.5978 53.8553 30.716 50.6781 32.8341Z" fill="url(#paint1_radial_144_6551)"/>
<path d="M33.2997 36.0813C34.3588 39.7881 33.2997 51.9675 33.2997 52.497C34.8883 50.3788 50.2449 47.2017 56.5994 45.613C62.9539 44.0244 62.4243 36.6109 61.3652 30.7859C60.518 26.126 57.482 23.5489 56.0699 22.8428C55.1873 22.6663 53.1044 22.5251 51.8335 23.3724C50.2449 24.4314 52.8926 26.5496 53.4222 28.6678C53.9517 30.7859 52.8926 31.845 49.1859 33.4336C45.4791 35.0222 37.536 35.5518 33.2997 36.0813Z" fill="url(#paint2_linear_144_6551)"/>
<ellipse cx="22.2434" cy="45.714" rx="7.94308" ry="12.1794" transform="rotate(-11.0228 22.2434 45.714)" fill="url(#paint3_radial_144_6551)"/>
<defs>
<linearGradient id="paint0_linear_144_6551" x1="26.9452" y1="11.1581" x2="36.5" y2="62.5233" gradientUnits="userSpaceOnUse">
<stop stop-color="#890000"/>
<stop offset="0.312548" stop-color="#FF4700"/>
<stop offset="0.510477" stop-color="#50FFA7"/>
<stop offset="0.755283" stop-color="#00E0FB"/>
<stop offset="1" stop-color="#0020FF"/>
</linearGradient>
<radialGradient id="paint1_radial_144_6551" cx="0" cy="0" r="1" gradientUnits="userSpaceOnUse" gradientTransform="translate(39.6541 35.4179) rotate(-82.875) scale(25.6157 34.1071)">
<stop stop-color="#4DFFAA"/>
<stop offset="0.173718" stop-color="#80FF77"/>
<stop offset="0.364744" stop-color="#E4FF13"/>
<stop offset="0.673077" stop-color="#FF3400"/>
</radialGradient>
<linearGradient id="paint2_linear_144_6551" x1="48.6563" y1="24.961" x2="53.9517" y2="46.6721" gradientUnits="userSpaceOnUse">
<stop stop-color="#FF9800"/>
<stop offset="0.40111" stop-color="#ADFF49"/>
<stop offset="0.703211" stop-color="#50FFA7"/>
<stop offset="1" stop-color="#00DCFE"/>
</linearGradient>
<radialGradient id="paint3_radial_144_6551" cx="0" cy="0" r="1" gradientUnits="userSpaceOnUse" gradientTransform="translate(14.4023 80.0933) rotate(-72.9047) scale(50.0575 32.6462)">
<stop offset="0.54051" stop-color="#0096FF"/>
<stop offset="0.74386" stop-color="#87FF70"/>
<stop offset="0.879284" stop-color="#EEFF09"/>
<stop offset="0.999083" stop-color="#FF5200"/>
</radialGradient>
</defs>
</svg>
