<svg width="70" height="70" viewBox="0 0 70 70" fill="none" xmlns="http://www.w3.org/2000/svg">
<path d="M35 70C54.33 70 70 54.33 70 35C70 15.67 54.33 0 35 0C15.67 0 0 15.67 0 35C0 54.33 15.67 70 35 70Z" fill="black"/>
<path d="M35.0071 70C28.0842 70.0014 21.3162 67.9497 15.5594 64.1043C9.80265 60.2591 5.31552 54.7929 2.66558 48.3972C0.015639 42.0014 -0.678071 34.9635 0.672188 28.1736C2.02245 21.3836 5.35602 15.1465 10.2513 10.2513C15.1466 5.35602 21.3836 2.02244 28.1735 0.672188C34.9636 -0.67807 42.0015 0.015639 48.3972 2.66558C54.7929 5.31551 60.2591 9.80265 64.1045 15.5595C67.9497 21.3163 70.0015 28.0841 70 35.007C69.9889 44.2843 66.2985 53.1784 59.7385 59.7385C53.1784 66.2985 44.2843 69.9889 35.0071 70ZM35.0071 1.4563C28.371 1.4549 21.8837 3.42144 16.3653 7.10719C10.847 10.7929 6.54564 16.0324 4.00518 22.1628C1.46472 28.2933 0.799305 35.0395 2.09307 41.5481C3.38684 48.0568 6.58169 54.0357 11.2736 58.7285C15.9654 63.4214 21.9437 66.6175 28.452 67.9126C34.9604 69.2077 41.7067 68.5438 47.8377 66.0045C53.9687 63.4654 59.2091 59.1651 62.896 53.6476C66.583 48.1301 68.5508 41.6431 68.5508 35.007C68.5415 26.1129 65.0046 17.5856 58.7162 11.2958C52.4277 5.00608 43.9012 1.46747 35.0071 1.4563Z" fill="url(#paint0_linear_1936_309)"/>
<path fill-rule="evenodd" clip-rule="evenodd" d="M10.7713 46.0377C10.7394 46.0571 10.703 46.068 10.6656 46.0694C8.60851 45.938 7.32107 43.7112 8.37762 42.0653L31.6216 5.85583C31.8047 5.59196 32.0502 5.37614 32.3366 5.22703C32.6231 5.07792 32.9421 5 33.2658 5C33.5896 5 33.9085 5.07792 34.195 5.22703C34.4816 5.37614 34.7269 5.59196 34.9102 5.85583L41.6552 16.3258C42.1759 17.1185 42.453 18.0433 42.453 18.9884C42.453 19.9334 42.1759 20.8582 41.6552 21.6508L37.576 28.0061C38.2825 28.24 38.9625 28.546 39.6051 28.919C40.6007 29.4872 41.4752 30.2411 42.18 31.1388C42.2853 31.2719 42.3906 31.429 42.4877 31.5739V31.574L42.5439 31.6575L42.6488 31.8096C42.7855 32.0036 42.935 32.1885 43.0965 32.3629C43.2575 32.5426 43.4324 32.7156 43.6144 32.8885L43.7683 33.0337L44.0342 33.3173L46.4902 29.493C46.6902 29.2062 46.9578 28.9719 47.2698 28.81C47.5818 28.6481 47.9289 28.5635 48.2813 28.5635C48.6337 28.5635 48.9809 28.6481 49.2929 28.81C49.605 28.9719 49.8725 29.2062 50.0726 29.493L58.4689 42.5425C58.725 42.9406 58.836 43.4131 58.7839 43.882C58.7317 44.3509 58.5195 44.7883 58.182 45.122C59.2621 46.0652 60.0972 47.2511 60.617 48.5797C60.7784 48.9452 60.8959 49.3282 60.9669 49.7208C61.0281 50.1523 61.0043 50.5914 60.8969 51.0139C60.662 51.8001 60.1941 52.4987 59.5535 53.0195C58.4003 53.966 57.065 54.6719 55.6282 55.0941C54.2503 55.5265 52.8283 55.8071 51.388 55.9308C50.8702 56 50.3944 56 49.9257 56H49.2259C48.4577 55.9784 47.6976 55.8384 46.9728 55.5851C45.6122 55.0276 44.3524 54.2544 43.2435 53.2961C42.1558 52.3962 41.1208 51.4357 40.1438 50.4193C39.4861 49.7692 38.8424 49.0776 38.2267 48.3861L37.2962 47.3764C37.0966 47.1573 36.8739 46.9603 36.6314 46.7886C36.4061 46.6334 36.1725 46.4903 35.9317 46.3598L35.7918 46.2769C35.0579 45.918 34.4327 45.3741 33.9795 44.7001C33.5673 43.9529 33.4384 43.0848 33.6158 42.2521C33.7444 41.5037 33.9801 40.7773 34.3154 40.0944C34.4238 39.8939 34.5579 39.7079 34.7143 39.5412C34.8679 39.3909 35.0367 39.2565 35.218 39.14C35.3214 39.0742 35.4155 38.9952 35.4979 38.905C35.5689 38.8051 35.6299 38.6985 35.6798 38.5868C35.7418 38.4622 35.7934 38.3326 35.8338 38.1995C35.8958 37.9969 35.9707 37.7983 36.0577 37.6049C36.2588 37.2448 36.5271 36.9257 36.8483 36.6644C37.429 36.1992 38.0778 35.8239 38.7724 35.5509C39.4374 35.2829 40.1229 35.0679 40.8225 34.9078C41.512 34.745 42.2143 34.641 42.9216 34.5966H43.3555L43.2016 34.4306C43.0925 34.3161 42.9636 34.1952 42.8279 34.0677L42.8278 34.0676L42.8167 34.0571L42.6488 33.905C42.4249 33.693 42.229 33.4925 42.061 33.3034C41.8643 33.083 41.6797 32.8521 41.5082 32.6118L41.3823 32.4182C41.2774 32.2661 41.1864 32.1347 41.0745 31.9895C40.4777 31.2406 39.7414 30.6114 38.9055 30.1362C38.0224 29.6424 37.0827 29.2546 36.1066 28.9813C35.1237 28.6586 34.124 28.3886 33.1119 28.1721C32.0661 27.9442 30.9992 27.8237 29.9283 27.8125C28.9833 27.8073 28.0417 27.9282 27.1294 28.1721C25.1882 28.7557 23.3996 29.7517 21.8887 31.0904C21.092 31.7392 20.3327 32.4319 19.6147 33.165L19.013 33.7806C18.4882 34.2992 17.9495 34.8455 17.4597 35.4057C16.0869 36.9606 14.8816 38.6525 13.8632 40.454C12.8137 42.2382 11.8131 44.1053 10.8476 45.9173V45.9587C10.8295 45.9911 10.8032 46.0183 10.7713 46.0377ZM35.8757 40.0736C35.6634 40.2132 35.4958 40.41 35.3929 40.6408C35.3618 40.7267 35.3361 40.8144 35.3159 40.9036C35.4999 40.72 35.6963 40.549 35.9037 40.3917C36.4456 39.9923 37.0909 39.7525 37.7649 39.7003H38.4645H38.5625C38.7951 39.6653 39.0105 39.5587 39.1783 39.3959C39.384 39.1813 39.5714 38.95 39.7381 38.7044C39.906 38.4623 40.0809 38.2342 40.2768 38.0129C40.7058 37.5296 41.2233 37.1306 41.8021 36.8372C42.0884 36.6978 42.3827 36.5754 42.6838 36.4707L43.0196 36.3808C43.213 36.3146 43.412 36.2659 43.6144 36.2356C43.9023 36.2017 44.1921 36.1855 44.4819 36.1872C44.2705 35.8142 44.0369 35.4539 43.7823 35.1083C43.5069 35.0967 43.231 35.1035 42.9567 35.1291C42.2831 35.2185 41.6182 35.3643 40.9695 35.5648C39.6835 35.8982 38.4885 36.5099 37.4711 37.3558C37.2613 37.5522 37.0925 37.7871 36.9742 38.0474C36.9204 38.1719 36.8805 38.3017 36.8552 38.4347C36.8087 38.6324 36.748 38.8265 36.6734 39.0156C36.5934 39.218 36.4901 39.4106 36.3655 39.5896C36.2276 39.7742 36.0625 39.9374 35.8757 40.0736ZM58.6509 52.0789C59.0877 51.7161 59.4087 51.2356 59.5744 50.6958C59.6367 50.4472 59.6532 50.1895 59.6234 49.9351C59.5698 49.6487 59.4805 49.37 59.3576 49.1053C58.908 47.916 58.1533 46.8627 57.1675 46.0486C56.1302 45.2762 54.9878 44.6522 53.774 44.1953L53.6759 44.1537C53.0882 43.8979 52.4305 43.6006 51.7309 43.2479C51.2271 42.9851 50.7793 42.7223 50.3314 42.4595L49.8767 42.1967L48.0785 41.1248L47.1758 40.5716L47.0219 40.4748C46.7541 40.3103 46.4949 40.1326 46.2453 39.9423L46.1473 39.8663C46.1157 39.8406 46.0915 39.8072 46.0773 39.7693L46.0283 39.6241C45.7161 38.673 45.3276 37.7481 44.8668 36.858L44.8039 36.7334H44.636C44.4539 36.7698 44.2741 36.816 44.0972 36.8718L43.7893 36.9617C43.6 36.9963 43.413 37.0425 43.2295 37.1L42.9426 37.183C42.6914 37.2899 42.4463 37.4099 42.208 37.5426C41.7172 37.7945 41.2783 38.1345 40.9135 38.5454C40.7819 38.6917 40.6631 38.8468 40.5404 39.0068L40.54 39.0072C40.5063 39.0512 40.4724 39.0954 40.4377 39.14C40.228 39.4287 39.9939 39.6994 39.7381 39.9492C39.463 40.2288 39.1053 40.4153 38.7165 40.4817C38.633 40.4946 38.5481 40.4946 38.4645 40.4817H37.7649C37.2546 40.5401 36.7705 40.7364 36.3655 41.0488C35.9181 41.388 35.5243 41.7912 35.197 42.2451C35.1037 42.3419 35.0197 42.4387 34.9451 42.5355C34.8464 43.0481 34.915 43.5785 35.141 44.05C35.4764 44.519 35.9299 44.8932 36.4565 45.1358L36.6034 45.2188C36.6573 45.2505 36.7117 45.282 36.7662 45.3134L36.7664 45.3137L36.7666 45.3138C36.9735 45.4335 37.1838 45.5552 37.3941 45.7029C37.7205 45.9276 38.0189 46.1899 38.2827 46.4843C38.4991 46.7075 38.7123 46.94 38.9245 47.1715L38.9248 47.1718C39.0282 47.2845 39.1312 47.3969 39.2343 47.5078L39.3695 47.6548C39.9567 48.2927 40.518 48.9026 41.1095 49.5064C42.0515 50.4861 43.0515 51.4098 44.1042 52.2726C45.0979 53.1318 46.2216 53.8319 47.4347 54.3473C48.0291 54.5527 48.6524 54.6647 49.2819 54.6791H49.9326C50.3524 54.6791 50.8073 54.6585 51.276 54.617C52.6137 54.5012 53.9346 54.2415 55.2154 53.8424C56.4682 53.4874 57.6364 52.8877 58.6509 52.0789ZM26.5139 42.6116C26.4686 42.6107 26.4246 42.5962 26.3879 42.5701L26.2619 42.4732C24.5827 41.2354 22.9874 39.9906 21.5111 38.8288C21.4857 38.8077 21.4656 38.7811 21.4523 38.7512C21.4388 38.7212 21.4326 38.6886 21.434 38.656L21.9029 33.0751C21.9079 33.025 21.9314 32.9783 21.9686 32.9439C22.0061 32.9096 22.0548 32.8898 22.1058 32.8884L32.4403 33.7252C32.4916 33.7287 32.5397 33.7513 32.5748 33.7886C32.6098 33.8258 32.6294 33.8748 32.6292 33.9258L32.5592 37.9851C32.559 38.0156 32.552 38.0457 32.5387 38.0731C32.5254 38.1006 32.5062 38.1249 32.4823 38.1442L32.1395 38.407C31.4205 38.9942 30.7067 39.5365 29.9849 40.0848L29.5995 40.3778C28.8045 40.9833 27.9669 41.6007 27.1435 42.2079L26.9616 42.3419L26.6328 42.5839C26.5973 42.6059 26.5555 42.6156 26.5139 42.6116ZM21.9029 38.566C22.9672 39.2613 23.969 39.9331 24.9471 40.5889C25.4671 40.9376 25.9803 41.2819 26.4929 41.6227C27.3324 40.9311 28.1721 40.288 29.0258 39.638L29.1129 39.5716C29.9356 38.945 30.7339 38.3371 31.5516 37.7292L31.6706 37.6394L31.8036 34.4652L22.4626 33.5178L21.9029 38.566ZM29.948 36.8372C29.948 36.8117 29.9384 36.7871 29.9213 36.7681C29.5742 36.3507 29.0782 36.0809 28.5359 36.0143C28.0531 35.9854 27.5709 36.0807 27.1364 36.2909C26.2327 36.5717 25.3868 37.0097 24.6385 37.5841C24.6318 37.5957 24.6282 37.6088 24.6282 37.6221C24.6282 37.6355 24.6318 37.6486 24.6385 37.6602C24.645 37.6797 24.6586 37.6963 24.6767 37.7065C24.6949 37.7167 24.7161 37.7199 24.7365 37.7154C25.6022 37.5581 26.4802 37.477 27.3604 37.4734C27.7739 37.5249 28.1923 37.5249 28.6059 37.4734C29.075 37.3636 29.5205 37.1715 29.9213 36.9064C29.9384 36.8874 29.948 36.8627 29.948 36.8372ZM52.965 52.4152C52.965 52.4152 52.6647 52.4152 52.4438 52.3481C52.2852 52.2998 52.1134 52.2983 51.9253 52.2968C51.8515 52.2962 51.775 52.2955 51.696 52.2921C51.5739 52.2866 51.458 52.2923 51.3561 52.2975C51.2334 52.3035 51.1309 52.3085 51.0615 52.2921C51.0491 52.2891 51.0359 52.286 51.0221 52.2828C51.0058 52.2792 50.9885 52.2753 50.9707 52.2713C50.6905 52.2085 50.2475 52.1094 50.359 51.8889C50.4496 51.7097 50.6536 51.5641 50.8689 51.5194C51.0842 51.4745 51.3107 51.5194 51.7753 51.6537C52.0688 51.7386 52.761 52.1576 52.965 52.4152ZM56.2621 50.8923C56.3414 50.5116 56.7153 49.7277 57.2365 49.3356C57.7093 48.9802 57.921 49.0301 58.1507 49.0841C58.1743 49.0898 58.1979 49.0953 58.2222 49.1005C58.4007 49.1389 57.8944 49.7625 57.6103 49.9292C57.2301 50.1524 56.9931 50.351 56.7932 50.5183C56.6121 50.6702 56.4615 50.7965 56.2621 50.8923Z" fill="url(#paint1_linear_1936_309)"/>
<defs>
<linearGradient id="paint0_linear_1936_309" x1="0.00705026" y1="35.007" x2="70" y2="35.007" gradientUnits="userSpaceOnUse">
<stop stop-color="#00BB2E"/>
<stop offset="0.53" stop-color="#0091DE"/>
<stop offset="0.67" stop-color="#0097D9"/>
<stop offset="0.86" stop-color="#00A7CB"/>
<stop offset="1" stop-color="#00B8BC"/>
</linearGradient>
<linearGradient id="paint1_linear_1936_309" x1="-1.59641" y1="4.65901" x2="61.6972" y2="68.6984" gradientUnits="userSpaceOnUse">
<stop offset="0.02" stop-color="#00F856"/>
<stop offset="0.53" stop-color="#0091DE"/>
<stop offset="0.6" stop-color="#0097E2"/>
<stop offset="0.7" stop-color="#00A7EE"/>
<stop offset="0.8" stop-color="#01BFFF"/>
<stop offset="1" stop-color="#00B5BF"/>
</linearGradient>
</defs>
</svg>
