<svg width="19" height="15" viewBox="0 0 19 15" fill="none" xmlns="http://www.w3.org/2000/svg">
<g clip-path="url(#clip0_603_676)">
<path d="M0.415039 0.484711H18.7866V14.2634H0.415039V0.484711Z" fill="#EE1C25"/>
<path d="M2.61968 5.58282L3.85974 1.86258L5.0998 5.58282L1.79297 3.30934H5.92651L2.61968 5.58282Z" fill="#FFFF00"/>
<path d="M7.99825 1.93387L6.72207 2.21668L7.57333 1.22472L7.48984 2.55977L6.78164 1.37785L7.99825 1.93387Z" fill="#FFFF00"/>
<path d="M9.28595 3.56619L7.99998 3.3319L9.16933 2.74774L8.57459 3.94591L8.38021 2.58183L9.28595 3.56619Z" fill="#FFFF00"/>
<path d="M9.0986 5.85621L8.02 5.1178L9.32592 5.06136L8.29422 5.91279L8.67309 4.58803L9.0986 5.85621Z" fill="#FFFF00"/>
<path d="M7.47621 7.35225L6.76649 6.25454L7.99288 6.70687L6.7124 7.09375L7.57352 6.01812L7.47621 7.35225Z" fill="#FFFF00"/>
</g>
<defs>
<clipPath id="clip0_603_676">
<rect width="18.3715" height="13.7787" fill="white" transform="translate(0.415039 0.484711)"/>
</clipPath>
</defs>
</svg>
