<svg width="24" height="24" viewBox="0 0 24 24" fill="none" xmlns="http://www.w3.org/2000/svg">
<path d="M12 0.0625C5.407 0.0625 0.0625 5.407 0.0625 12C0.0625 18.593 5.407 23.9375 12 23.9375C18.593 23.9375 23.9375 18.593 23.9375 12C23.9375 5.407 18.593 0.0625 12 0.0625ZM12 21.948C6.506 21.948 2.052 17.494 2.052 12C2.052 6.506 6.506 2.052 12 2.052C17.494 2.052 21.948 6.506 21.948 12C21.948 17.494 17.494 21.948 12 21.948Z" fill="#5367FE"/>
<path d="M12.6099 8.117C12.8959 8.117 13.1584 8.016 13.3949 7.814C13.6294 7.612 13.7734 7.367 13.8249 7.081C13.8739 6.793 13.8129 6.55 13.6349 6.348C13.4579 6.144 13.2259 6.043 12.9389 6.043C12.6509 6.043 12.3889 6.144 12.1544 6.348C11.9174 6.5495 11.7734 6.793 11.7244 7.081C11.6889 7.3675 11.7574 7.612 11.9259 7.814C12.0949 8.016 12.3239 8.117 12.6099 8.117Z" fill="#5367FE"/>
<path d="M14.8111 15.2C14.7846 15.2375 14.7591 15.27 14.7331 15.308C14.5771 15.506 13.9956 16.2055 13.2411 16.624C13.2361 16.626 13.2316 16.628 13.2291 16.631C13.1631 16.666 13.0956 16.6925 13.0286 16.7235C12.8296 16.795 12.6431 16.813 12.5831 16.8175C12.4136 16.7955 12.3216 16.677 12.3216 16.4525C12.3216 16.267 12.3761 15.9005 12.4861 15.35L12.6126 14.7945L13.1301 12.3105C13.2141 11.8875 13.2591 11.6525 13.2691 11.606L13.3821 11.025C13.4486 10.6655 13.4826 10.428 13.4826 10.312C13.4826 10.09 13.4276 9.92151 13.3391 9.78451C13.3311 9.76451 13.3206 9.74451 13.3061 9.72351C13.2931 9.70751 13.2791 9.69351 13.2651 9.67901C13.2496 9.66201 13.2421 9.64751 13.2211 9.63001C13.0006 9.45001 12.7946 9.39801 12.6526 9.38651L12.6551 9.38251C12.6551 9.38251 11.7216 9.31201 10.3386 10.2235C10.3186 10.2365 10.3066 10.246 10.2881 10.2585C9.91359 10.4955 9.61409 10.733 9.40659 10.9245C9.24759 11.0605 9.12509 11.187 9.03409 11.3055L9.03009 11.311L9.03059 11.3105C8.91259 11.466 8.85059 11.607 8.85059 11.732C8.85059 11.8305 8.93059 11.929 9.08859 12.0275C9.08859 12.0275 9.68259 11.2605 10.6811 10.7615C10.7561 10.729 10.9481 10.6495 11.1171 10.6055C11.1956 10.5875 11.3446 10.5735 11.4396 10.652C11.5076 10.723 11.5526 10.8215 11.5526 10.975C11.5526 11.1145 11.5316 11.284 11.4891 11.4865L11.3881 11.965L11.2626 12.563L10.7696 14.927C10.5176 16.148 10.3911 16.8785 10.3911 17.1165C10.3911 17.678 10.6986 17.959 11.3126 17.959C11.5911 17.959 11.8771 17.9085 12.1706 17.8185C12.1726 17.8185 12.1736 17.8195 12.1756 17.8205C12.1956 17.8135 12.2141 17.806 12.2336 17.799C12.2821 17.7835 12.3311 17.765 12.3796 17.7465C13.7651 17.231 14.6771 16.1925 14.9526 15.8445C14.9771 15.815 14.9981 15.7875 15.0176 15.761C15.0331 15.7395 15.0431 15.725 15.0431 15.725H15.0421C15.1121 15.622 15.1506 15.5365 15.1506 15.4725C15.1496 15.383 15.0341 15.2935 14.8111 15.2Z" fill="#5367FE"/>
</svg>
