<svg width="24" height="24" viewBox="0 0 24 24" fill="none" xmlns="http://www.w3.org/2000/svg">
<path d="M21.3333 0H2.66667C1.2 0 0 1.2 0 2.66667V21.3333C0 22.8 1.2 24 2.66667 24H21.3333C22.8 24 24 22.8 24 21.3333V2.66667C24 1.2 22.8 0 21.3333 0ZM6 20C4.89333 20 4 19.1067 4 18C4 16.8933 4.89333 16 6 16C7.10667 16 8 16.8933 8 18C8 19.1067 7.10667 20 6 20ZM6 8C4.89333 8 4 7.10667 4 6C4 4.89333 4.89333 4 6 4C7.10667 4 8 4.89333 8 6C8 7.10667 7.10667 8 6 8ZM12 14C10.8933 14 10 13.1067 10 12C10 10.8933 10.8933 10 12 10C13.1067 10 14 10.8933 14 12C14 13.1067 13.1067 14 12 14ZM18 20C16.8933 20 16 19.1067 16 18C16 16.8933 16.8933 16 18 16C19.1067 16 20 16.8933 20 18C20 19.1067 19.1067 20 18 20ZM18 8C16.8933 8 16 7.10667 16 6C16 4.89333 16.8933 4 18 4C19.1067 4 20 4.89333 20 6C20 7.10667 19.1067 8 18 8Z" fill="white"/>
</svg>
