<svg width="17" height="21" viewBox="0 0 17 21" fill="none" xmlns="http://www.w3.org/2000/svg">
<path d="M16.1465 11.35C14.5765 7.27002 8.9865 7.05002 10.3365 1.12002C10.4365 0.680018 9.9665 0.340018 9.5865 0.570018C5.9565 2.71002 3.3465 7.00002 5.5365 12.62C5.7165 13.08 5.1765 13.51 4.7865 13.21C2.9765 11.84 2.7865 9.87002 2.9465 8.46002C3.0065 7.94002 2.3265 7.69002 2.0365 8.12002C1.3565 9.16002 0.666504 10.84 0.666504 13.37C1.0465 18.97 5.7765 20.69 7.4765 20.91C9.9065 21.22 12.5365 20.77 14.4265 19.04C16.5065 17.11 17.2665 14.03 16.1465 11.35ZM6.8665 16.38C8.3065 16.03 9.0465 14.99 9.2465 14.07C9.5765 12.64 8.2865 11.24 9.1565 8.98002C9.4865 10.85 12.4265 12.02 12.4265 14.06C12.5065 16.59 9.7665 18.76 6.8665 16.38Z" fill="white"/>
</svg>
