<svg width="20" height="20" viewBox="0 0 20 20" fill="none" xmlns="http://www.w3.org/2000/svg">
<path d="M9.3335 0L3.8335 9H14.8335L9.3335 0Z" fill="white"/>
<path d="M14.8335 20C15.4244 20 16.0096 19.8836 16.5556 19.6575C17.1015 19.4313 17.5976 19.0998 18.0155 18.682C18.4333 18.2641 18.7648 17.768 18.991 17.2221C19.2171 16.6761 19.3335 16.0909 19.3335 15.5C19.3335 14.9091 19.2171 14.3239 18.991 13.7779C18.7648 13.232 18.4333 12.7359 18.0155 12.318C17.5976 11.9002 17.1015 11.5687 16.5556 11.3425C16.0096 11.1164 15.4244 11 14.8335 11C13.64 11 12.4954 11.4741 11.6515 12.318C10.8076 13.1619 10.3335 14.3065 10.3335 15.5C10.3335 16.6935 10.8076 17.8381 11.6515 18.682C12.4954 19.5259 13.64 20 14.8335 20Z" fill="white"/>
<path d="M0.333496 11.5H8.3335V19.5H0.333496V11.5Z" fill="white"/>
</svg>
