<svg version="1.1" xmlns="http://www.w3.org/2000/svg" x="0px" y="0px"
     viewBox="0 0 1000 1000" xml:space="preserve" fill="#EF2C2C">
<g><g transform="translate(0.000000,511.000000) scale(0.100000,-0.100000)"><path d="M4641.4,4999.6C2568.9,4853.9,780.6,3369.3,256.9,1356.2c-205-790.4-210-1669.8-9.9-2452.8c128.4-516.3,373-1062.2,669.4-1504.3c1578.4-2361.4,4787.1-2902.4,7054.6-1188.1c259.4,195.1,731.2,666.9,926.3,926.3c1464.8,1936.6,1309.2,4624.1-365.6,6365.5C7516.6,4559.9,6106.1,5100.9,4641.4,4999.6z M5300.9,4011.6c684.2-56.8,1282-264.3,1867.4-649.6l229.7-150.7L4651.2,464.5C1931.6-2255.1,1902-2282.3,1862.5-2230.4c-24.7,29.6-93.9,133.4-153.2,227.3c-1262.2,1958.8-541,4574.7,1551.2,5617c533.5,264.3,968.3,373,1701.9,417.4C4989.7,4033.8,5142.8,4023.9,5300.9,4011.6z M8297.1,2213.3c736.1-1141.2,817.6-2625.8,210-3838.6C8267.5-2102,7939-2526.8,7568.4-2843c-1361-1163.4-3253.1-1284.5-4735.2-303.8L2601-2993.7L5347.8-246.9C8067.4,2472.7,8097.1,2499.8,8136.6,2448C8161.3,2418.3,8232.9,2312.1,8297.1,2213.3z"/></g></g>
</svg>
