<svg width="14" height="13" viewBox="0 0 14 13" fill="none" xmlns="http://www.w3.org/2000/svg">
<path d="M0.333008 12.8333H1.66634C2.03301 12.8333 2.33301 12.5333 2.33301 12.1666V6.16665C2.33301 5.79998 2.03301 5.49998 1.66634 5.49998H0.333008V12.8333ZM13.553 8.08665C13.6263 7.91998 13.6663 7.73998 13.6663 7.55331V6.83331C13.6663 6.09998 13.0663 5.49998 12.333 5.49998H8.66634L9.27967 2.39998C9.31301 2.25331 9.29301 2.09331 9.22634 1.95998C9.07475 1.65972 8.87676 1.38524 8.63967 1.14665L8.33301 0.833313L4.05967 5.10665C3.80634 5.35998 3.66634 5.69998 3.66634 6.05331V11.28C3.6681 11.6926 3.83324 12.0876 4.1256 12.3788C4.41797 12.6699 4.81376 12.8333 5.22634 12.8333H10.633C11.0997 12.8333 11.5397 12.5866 11.7797 12.1866L13.553 8.08665Z" fill="#4BC67C"/>
</svg>
