<svg width="25" height="38" viewBox="0 0 25 38" fill="none" xmlns="http://www.w3.org/2000/svg">
<path d="M5.42109 21.2743L5.50547 21.3776L11.8805 29.0696C12.0961 29.3301 12.4195 29.4923 12.7805 29.4923C13.1414 29.4923 13.4648 29.3252 13.6805 29.0696L20.0508 21.3923L20.1586 21.2645C20.2383 21.1416 20.2852 20.9942 20.2852 20.8369C20.2852 20.4093 19.9383 20.0603 19.507 20.0603H6.06328C5.63203 20.0603 5.28516 20.4093 5.28516 20.8369C5.28516 20.9991 5.33672 21.1515 5.42109 21.2743Z" fill="#E63E3E"/>
<path d="M20.1492 16.4582L20.0648 16.355L13.6898 8.66293C13.4742 8.40243 13.1508 8.24023 12.7898 8.24023C12.4289 8.24023 12.1055 8.40735 11.8898 8.66293L5.51953 16.3402L5.41172 16.468C5.33203 16.5909 5.28516 16.7384 5.28516 16.8956C5.28516 17.3232 5.63203 17.6722 6.06328 17.6722L19.507 17.6722C19.9383 17.6722 20.2852 17.3232 20.2852 16.8956C20.2852 16.7334 20.2336 16.5811 20.1492 16.4582Z" fill="#40D329" fill-opacity="0.2"/>
</svg>
